<svg width="1440" height="789" viewBox="0 0 1440 789" fill="none" xmlns="http://www.w3.org/2000/svg">
	<path d="M537 739.073L335.092 646.92L229 476.081" stroke="white" />
	<path d="M229.067 475.554L427.228 573.343L536.72 738.864" stroke="white" />
	<path d="M594.36 276.4L862.283 277.612L1063.81 412.965" stroke="white" />
	<path d="M1064 413.578L797.404 404.304L594.771 276.491" stroke="white" />
	<path d="M1216.2 533.031L1078.25 706.899L886.937 768.858" stroke="white" />
	<path d="M886.441 768.666L1028.96 599.789L1215.93 533.252" stroke="white" />
	<path d="M989.781 31.3748L1324.17 181.939L1500.9 463.323" stroke="white" />
	<path d="M1500.8 464.194L1172.55 304.286L990.246 31.7176" stroke="white" />
	<path d="M291 204.969L140.181 413.843L-78.4153 495.753" stroke="white" />
	<path d="M-79 495.557L77.3821 292.23L290.699 205.24" stroke="white" />
	<path d="M105.174 356.274C104.33 356.99 103.512 357.51 102.719 357.833C101.928 358.137 101.14 358.177 100.354 357.952C99.5786 357.718 98.7983 357.139 98.0131 356.214L91.4384 348.468L92.6582 347.432L99.233 355.178C99.7765 355.819 100.315 356.227 100.85 356.403C101.385 356.56 101.932 356.525 102.49 356.296C103.048 356.067 103.632 355.694 104.242 355.176C104.852 354.659 105.315 354.143 105.631 353.63C105.948 353.116 106.067 352.587 105.988 352.041C105.911 351.477 105.601 350.875 105.058 350.234L98.4829 342.488L99.7027 341.453L106.277 349.199C107.063 350.124 107.502 350.992 107.597 351.804C107.701 352.607 107.534 353.379 107.095 354.118C106.658 354.839 106.018 355.558 105.174 356.274ZM110.677 351.446L109.406 342.871L101.106 340.262L102.432 339.136L109.392 341.309L108.211 334.231L109.538 333.105L110.871 341.784L119.033 344.353L117.706 345.479L110.901 343.333L112.004 350.32L110.677 351.446Z" fill="white" />
	<path d="M799.268 314.974C798.978 314.719 798.698 314.42 798.43 314.079C798.181 313.736 797.995 313.422 797.872 313.138L798.677 312.22C798.852 312.445 799.053 312.701 799.28 312.989C799.525 313.275 799.758 313.515 799.979 313.708C800.45 314.121 800.918 314.346 801.384 314.381C801.858 314.407 802.372 314.104 802.926 313.472L810.376 304.976L811.564 306.018L803.982 314.664C803.182 315.577 802.404 316.039 801.649 316.05C800.904 316.071 800.11 315.712 799.268 314.974ZM805.656 320.575C805.064 320.056 804.732 319.454 804.659 318.769C804.585 318.084 804.83 317.421 805.393 316.78L805.894 316.208C806.447 315.577 807.101 315.245 807.855 315.215C808.619 315.193 809.422 315.552 810.264 316.29L812.986 318.677L813.856 317.684C814.146 317.353 814.337 317.024 814.429 316.697C814.53 316.36 814.487 315.994 814.301 315.6C814.114 315.206 813.74 314.763 813.179 314.271L810.683 312.082L811.302 311.375C811.706 311.622 812.16 311.923 812.665 312.278C813.181 312.641 813.754 313.099 814.386 313.653C815.377 314.504 815.937 315.332 816.065 316.136C816.193 316.941 815.87 317.784 815.097 318.666L810.126 324.335L809.208 323.531L809.787 322.415C809.731 322.419 809.549 322.384 809.242 322.31C808.943 322.225 808.576 322.107 808.141 321.956C807.725 321.804 807.292 321.611 806.842 321.376C806.402 321.149 806.006 320.882 805.656 320.575ZM806.93 320.123C807.15 320.316 807.437 320.515 807.791 320.718C808.163 320.92 808.529 321.1 808.889 321.256C809.259 321.42 809.57 321.551 809.822 321.648C810.093 321.743 810.233 321.796 810.243 321.804L812.458 319.278L809.915 317.234C809.326 316.753 808.788 316.538 808.3 316.589C807.83 316.639 807.42 316.864 807.068 317.265L806.752 317.626C806.462 317.957 806.298 318.274 806.262 318.579C806.235 318.893 806.282 319.182 806.404 319.449C806.544 319.713 806.719 319.938 806.93 320.123ZM814.53 328.198L818.549 317.517L819.767 318.585L816.198 327.691L824.835 323.029L826.038 324.084L815.884 329.384L814.53 328.198ZM821.618 334.572C821.026 334.054 820.694 333.452 820.621 332.767C820.548 332.082 820.792 331.419 821.355 330.777L821.856 330.206C822.41 329.574 823.064 329.243 823.818 329.213C824.581 329.191 825.384 329.549 826.226 330.288L828.948 332.675L829.819 331.682C830.109 331.351 830.3 331.022 830.392 330.695C830.492 330.358 830.449 329.992 830.263 329.598C830.076 329.204 829.703 328.761 829.141 328.268L826.645 326.079L827.265 325.373C827.668 325.62 828.123 325.921 828.628 326.275C829.143 326.638 829.716 327.097 830.348 327.651C831.339 328.502 831.899 329.33 832.027 330.134C832.155 330.938 831.833 331.781 831.059 332.664L826.088 338.333L825.171 337.528L825.749 336.413C825.693 336.417 825.511 336.382 825.204 336.307C824.906 336.223 824.539 336.105 824.104 335.954C823.687 335.802 823.254 335.608 822.804 335.373C822.364 335.147 821.969 334.88 821.618 334.572ZM822.892 334.12C823.113 334.314 823.4 334.512 823.753 334.716C824.126 334.918 824.492 335.097 824.851 335.253C825.221 335.418 825.532 335.549 825.784 335.646C826.055 335.741 826.195 335.793 826.205 335.802L828.421 333.276L825.877 331.232C825.288 330.751 824.75 330.536 824.262 330.587C823.793 330.636 823.382 330.862 823.031 331.263L822.714 331.624C822.424 331.954 822.261 332.272 822.224 332.577C822.197 332.89 822.245 333.18 822.366 333.446C822.506 333.711 822.682 333.936 822.892 334.12ZM831.406 343.156C831.105 342.892 830.753 342.556 830.348 342.148C829.944 341.759 829.555 341.364 829.179 340.963C828.803 340.563 828.507 340.223 828.29 339.945L829.094 339.027C829.439 339.383 829.904 339.843 830.489 340.41C831.093 340.975 831.696 341.521 832.297 342.049C832.748 342.444 833.194 342.755 833.634 342.981C834.074 343.208 834.505 343.293 834.926 343.237C835.358 343.19 835.771 342.94 836.167 342.489L836.826 341.737C837.266 341.236 837.469 340.732 837.435 340.224C837.412 339.724 837.115 339.224 836.543 338.723L835.355 337.681C834.443 336.881 833.902 336.052 833.733 335.194C833.573 334.345 833.924 333.429 834.785 332.447L835.339 331.815C836.254 330.772 837.185 330.277 838.133 330.328C839.081 330.379 840.066 330.853 841.089 331.75C841.4 332.022 841.738 332.354 842.104 332.746C842.479 333.128 842.834 333.511 843.171 333.895C843.517 334.269 843.793 334.591 844 334.861L843.209 335.763C842.784 335.338 842.309 334.868 841.784 334.354C841.259 333.841 840.751 333.369 840.26 332.938C839.578 332.34 838.932 331.995 838.321 331.903C837.71 331.811 837.084 332.13 836.443 332.862L835.994 333.374C835.458 333.985 835.249 334.547 835.368 335.059C835.486 335.57 835.831 336.077 836.403 336.578L837.681 337.699C838.593 338.499 839.049 339.333 839.05 340.203C839.059 341.062 838.738 341.862 838.088 342.604L837.336 343.461C836.685 344.203 836.024 344.634 835.351 344.754C834.689 344.882 834.026 344.789 833.363 344.473C832.7 344.157 832.048 343.718 831.406 343.156ZM839.859 350.568C839.247 350.032 838.798 349.443 838.51 348.8C838.231 348.148 838.21 347.402 838.448 346.565C838.686 345.727 839.284 344.762 840.243 343.669C841.21 342.567 842.083 341.834 842.862 341.471C843.66 341.107 844.397 341.025 845.071 341.227C845.765 341.427 846.437 341.813 847.089 342.384C847.49 342.736 847.908 343.138 848.344 343.592C848.789 344.035 849.196 344.481 849.566 344.929L848.946 345.636L846.6 343.578C846.089 343.13 845.583 342.837 845.083 342.7C844.582 342.563 844.035 342.651 843.442 342.964C842.857 343.266 842.178 343.859 841.404 344.741C840.657 345.593 840.181 346.328 839.976 346.947C839.77 347.565 839.769 348.113 839.97 348.591C840.18 349.059 840.536 349.513 841.037 349.952L843.488 352.102L842.882 352.794C842.468 352.537 841.994 352.219 841.458 351.838C840.923 351.457 840.39 351.034 839.859 350.568ZM844.392 354.384L851.434 346.354L852.336 347.146L851.396 348.795C852.134 348.68 852.848 348.676 853.535 348.782C854.232 348.897 854.871 349.209 855.453 349.719C855.744 349.974 855.972 350.219 856.139 350.454L855.071 351.672C854.958 351.537 854.831 351.399 854.689 351.257C854.556 351.105 854.415 350.963 854.264 350.832C853.713 350.348 853.15 350.04 852.574 349.908C852.007 349.765 851.342 349.705 850.578 349.727L845.58 355.426L844.392 354.384ZM859.064 350.518C858.904 350.378 858.894 350.227 859.034 350.067L860.063 348.894C860.204 348.734 860.354 348.724 860.515 348.864L861.357 349.603C861.507 349.735 861.512 349.881 861.371 350.041L860.343 351.214C860.202 351.374 860.057 351.389 859.906 351.257L859.064 350.518ZM850.589 359.819L857.631 351.789L858.819 352.83L851.777 360.86L850.589 359.819ZM850.944 366.434L861.111 354.841L862.074 355.685L861.574 356.709C861.869 356.737 862.218 356.804 862.622 356.91C863.044 357.015 863.465 357.162 863.884 357.352C864.312 357.55 864.692 357.795 865.023 358.085C865.715 358.691 866.1 359.375 866.178 360.135C866.265 360.885 866.131 361.654 865.776 362.443C865.422 363.232 864.928 363.987 864.295 364.709C863.108 366.062 861.977 366.887 860.9 367.185C859.824 367.482 858.789 367.195 857.797 366.325C857.356 365.938 856.966 365.473 856.628 364.928C856.29 364.383 856.027 363.824 855.838 363.251L852.132 367.476L850.944 366.434ZM858.349 365.028C858.73 365.362 859.155 365.565 859.623 365.639C860.09 365.712 860.612 365.602 861.188 365.309C861.773 365.006 862.413 364.459 863.107 363.667C863.767 362.915 864.199 362.23 864.404 361.612C864.618 360.984 864.657 360.433 864.522 359.96C864.406 359.486 864.173 359.095 863.822 358.787C863.361 358.383 862.869 358.084 862.346 357.892C861.842 357.698 861.369 357.55 860.928 357.446L856.616 362.363C856.8 362.862 857.034 363.342 857.32 363.805C857.615 364.277 857.958 364.685 858.349 365.028ZM865.425 372.828C864.653 372.151 864.248 371.45 864.21 370.725C864.18 369.99 864.589 369.16 865.435 368.235L869.384 363.824L868.105 362.703L868.778 361.936L870.256 362.86L872.416 360.791L873.333 361.595L871.368 363.835L873.684 365.866L872.827 366.844L870.511 364.813L866.608 369.264C866.204 369.725 865.966 370.128 865.894 370.473C865.831 370.808 865.859 371.099 865.979 371.346C866.1 371.593 866.236 371.802 866.389 371.971L867.287 372.918L866.522 373.791L865.425 372.828Z" fill="white" />
	<path d="M1223.48 229.702L1231.83 217.577L1236.61 220.865C1236.99 221.129 1237.34 221.44 1237.64 221.795C1237.97 222.148 1238.19 222.552 1238.31 223.009C1238.45 223.462 1238.45 223.986 1238.3 224.579C1238.15 225.172 1237.82 225.848 1237.29 226.606C1236.84 227.265 1236.39 227.759 1235.96 228.089C1235.53 228.408 1235.11 228.609 1234.72 228.692C1234.32 228.775 1233.94 228.783 1233.58 228.714C1233.24 228.654 1232.92 228.558 1232.64 228.429L1231.59 235.281L1230.26 234.363L1231.31 227.782C1231.08 227.605 1230.77 227.384 1230.39 227.119C1230.02 226.851 1229.64 226.581 1229.24 226.309C1228.87 226.034 1228.54 225.792 1228.26 225.584L1224.8 230.609L1223.48 229.702ZM1228.95 224.579L1232.21 226.825C1232.59 227.082 1232.97 227.255 1233.36 227.346C1233.76 227.426 1234.18 227.349 1234.61 227.115C1235.05 226.881 1235.51 226.413 1235.99 225.71C1236.46 225.029 1236.71 224.45 1236.75 223.974C1236.8 223.505 1236.71 223.109 1236.47 222.788C1236.25 222.455 1235.96 222.164 1235.59 221.915L1232.33 219.67L1228.95 224.579ZM1236.62 238.891C1235.7 238.256 1235.07 237.616 1234.72 236.971C1234.38 236.333 1234.32 235.606 1234.54 234.788C1234.77 233.97 1235.27 232.99 1236.06 231.848C1236.86 230.684 1237.6 229.857 1238.27 229.368C1238.97 228.875 1239.68 228.682 1240.4 228.789C1241.12 228.896 1241.93 229.263 1242.84 229.89C1243.61 230.419 1244.18 230.942 1244.56 231.458C1244.93 231.973 1245.08 232.525 1245.02 233.112C1244.97 233.696 1244.69 234.361 1244.18 235.108C1243.64 235.888 1243.04 236.282 1242.37 236.291C1241.7 236.299 1240.98 236.039 1240.21 235.51L1236.98 233.287C1236.49 234.001 1236.17 234.627 1236.01 235.165C1235.87 235.699 1235.92 236.197 1236.17 236.659C1236.42 237.111 1236.91 237.586 1237.64 238.085L1240.47 240.035L1239.93 240.826C1239.38 240.544 1238.85 240.259 1238.33 239.97C1237.83 239.689 1237.26 239.329 1236.62 238.891ZM1237.56 232.419L1240.69 234.574C1241.18 234.914 1241.6 235.075 1241.96 235.058C1242.33 235.038 1242.67 234.792 1243 234.319C1243.51 233.572 1243.7 232.948 1243.56 232.447C1243.42 231.946 1242.95 231.423 1242.16 230.879C1241.54 230.448 1240.98 230.205 1240.5 230.149C1240.04 230.091 1239.58 230.249 1239.11 230.623C1238.65 230.986 1238.13 231.585 1237.56 232.419ZM1243.89 243.891C1243.24 243.445 1242.84 242.886 1242.69 242.215C1242.54 241.543 1242.7 240.856 1243.18 240.153L1243.62 239.527C1244.09 238.835 1244.7 238.43 1245.45 238.311C1246.2 238.2 1247.04 238.462 1247.97 239.097L1250.95 241.15L1251.7 240.062C1251.95 239.7 1252.1 239.351 1252.15 239.015C1252.21 238.668 1252.13 238.31 1251.89 237.94C1251.66 237.571 1251.24 237.174 1250.62 236.751L1247.89 234.869L1248.42 234.095C1248.85 234.293 1249.34 234.539 1249.88 234.832C1250.44 235.132 1251.06 235.52 1251.75 235.997C1252.83 236.726 1253.49 237.483 1253.71 238.267C1253.93 239.05 1253.71 239.926 1253.04 240.892L1248.77 247.103L1247.76 246.412L1248.21 245.237C1248.15 245.247 1247.97 245.233 1247.65 245.195C1247.35 245.146 1246.97 245.072 1246.52 244.973C1246.09 244.87 1245.64 244.729 1245.16 244.548C1244.7 244.375 1244.27 244.156 1243.89 243.891ZM1245.1 243.293C1245.34 243.46 1245.65 243.623 1246.03 243.784C1246.42 243.942 1246.8 244.077 1247.18 244.189C1247.57 244.31 1247.89 244.403 1248.15 244.47C1248.43 244.533 1248.58 244.569 1248.59 244.576L1250.49 241.809L1247.73 240.076C1247.09 239.667 1246.53 239.516 1246.05 239.624C1245.59 239.728 1245.21 240 1244.91 240.439L1244.63 240.834C1244.38 241.197 1244.26 241.532 1244.26 241.838C1244.27 242.153 1244.35 242.435 1244.5 242.685C1244.67 242.932 1244.87 243.135 1245.1 243.293ZM1254.35 251.09C1253.68 250.629 1253.16 250.096 1252.8 249.492C1252.45 248.877 1252.34 248.139 1252.48 247.279C1252.62 246.42 1253.1 245.391 1253.92 244.194C1254.76 242.986 1255.54 242.156 1256.27 241.704C1257.02 241.25 1257.74 241.083 1258.43 241.204C1259.15 241.322 1259.86 241.626 1260.57 242.118C1261.01 242.42 1261.48 242.771 1261.96 243.17C1262.46 243.558 1262.91 243.953 1263.33 244.355L1262.8 245.129L1260.23 243.361C1259.67 242.975 1259.13 242.743 1258.62 242.666C1258.11 242.588 1257.57 242.739 1257.02 243.119C1256.47 243.488 1255.87 244.156 1255.2 245.123C1254.56 246.056 1254.17 246.842 1254.04 247.48C1253.91 248.118 1253.97 248.662 1254.23 249.114C1254.49 249.554 1254.9 249.963 1255.45 250.341L1258.13 252.189L1257.61 252.947C1257.17 252.741 1256.66 252.48 1256.09 252.165C1255.51 251.849 1254.93 251.491 1254.35 251.09ZM1262.21 256.357C1261.37 255.775 1260.88 255.126 1260.76 254.411C1260.65 253.684 1260.96 252.812 1261.69 251.795L1265.09 246.952L1263.69 245.989L1264.27 245.148L1265.85 245.893L1267.75 243.585L1268.76 244.277L1267.07 246.732L1269.6 248.478L1268.87 249.549L1266.33 247.803L1262.97 252.679C1262.63 253.185 1262.44 253.613 1262.41 253.964C1262.38 254.304 1262.44 254.589 1262.59 254.821C1262.74 255.052 1262.9 255.243 1263.07 255.394L1264.07 256.23L1263.42 257.185L1262.21 256.357ZM1265.37 258.553C1265.19 258.432 1265.17 258.284 1265.29 258.108L1266.19 256.79C1266.32 256.614 1266.46 256.587 1266.64 256.708L1267.36 257.207C1267.54 257.328 1267.57 257.476 1267.45 257.652L1266.54 258.97C1266.42 259.145 1266.27 259.173 1266.09 259.052L1265.37 258.553ZM1275.96 250.546C1275.78 250.425 1275.76 250.276 1275.88 250.101L1276.76 248.815C1276.88 248.64 1277.03 248.612 1277.21 248.733L1278.15 249.38C1278.31 249.493 1278.33 249.638 1278.21 249.813L1277.33 251.098C1277.21 251.274 1277.06 251.305 1276.9 251.192L1275.96 250.546ZM1265.96 264.688L1274.7 251.986L1276 252.882L1270.14 261.399C1269.6 262.19 1269.03 262.936 1268.45 263.638C1267.87 264.34 1267.37 264.913 1266.93 265.357L1265.96 264.688ZM1275.42 265.593C1275.2 265.442 1274.94 265.251 1274.63 265.021C1274.32 264.791 1274 264.548 1273.67 264.291C1273.35 264.035 1273.05 263.798 1272.78 263.579C1272.52 263.35 1272.32 263.166 1272.19 263.027L1272.73 262.236L1276.34 264.719C1276.69 264.961 1277.02 265.145 1277.32 265.272C1277.63 265.406 1277.92 265.429 1278.19 265.34C1278.48 265.259 1278.75 265.032 1279 264.659L1279.28 264.263C1279.54 263.879 1279.62 263.49 1279.52 263.096C1279.42 262.703 1279.09 262.313 1278.53 261.928L1277.29 261.077C1276.51 260.541 1275.98 259.948 1275.7 259.301C1275.43 258.661 1275.58 257.923 1276.15 257.088L1276.47 256.627C1277.04 255.803 1277.69 255.366 1278.44 255.314C1279.2 255.251 1280.13 255.598 1281.22 256.353C1281.53 256.565 1281.87 256.818 1282.26 257.112C1282.65 257.414 1283.02 257.719 1283.37 258.027C1283.74 258.325 1284.02 258.579 1284.23 258.789L1283.69 259.58L1280.29 257.244C1279.73 256.858 1279.24 256.653 1278.8 256.628C1278.38 256.611 1277.98 256.871 1277.61 257.41L1277.36 257.772C1277 258.288 1276.93 258.724 1277.14 259.078C1277.37 259.429 1277.74 259.782 1278.26 260.137L1279.51 260.999C1280.31 261.551 1280.8 262.165 1280.98 262.841C1281.17 263.516 1281.01 264.206 1280.53 264.909L1280.11 265.518C1279.7 266.111 1279.25 266.482 1278.76 266.63C1278.28 266.767 1277.76 266.739 1277.2 266.546C1276.64 266.342 1276.05 266.024 1275.42 265.593Z" fill="white" />
	<path d="M377.906 620.28L383.043 606.485L384.542 607.044L382.162 613.435L389.06 616.004L391.44 609.612L392.92 610.164L387.784 623.958L386.303 623.407L388.564 617.334L381.667 614.766L379.406 620.838L377.906 620.28ZM393.812 626.203L398.446 613.758L394.173 612.167L394.675 610.817L404.684 614.544L404.182 615.894L399.927 614.309L395.293 626.754L393.812 626.203ZM400.356 628.64L407.067 615.432L408.585 615.997L407.82 629.285L415.857 618.705L417.394 619.277L413.869 633.672L412.426 633.135L415.371 621.213L407.796 631.411L406.428 630.901L407.284 618.287L401.799 629.177L400.356 628.64ZM419.154 635.64C418.616 635.44 418.166 635.18 417.801 634.859C417.454 634.53 417.236 634.122 417.148 633.634C417.059 633.146 417.148 632.545 417.413 631.833L421.517 620.812L423.016 621.371L418.989 632.185C418.821 632.635 418.769 633.007 418.83 633.3C418.896 633.581 419.032 633.809 419.237 633.985C419.459 634.153 419.707 634.288 419.982 634.39L424.93 636.233L424.42 637.601L419.154 635.64Z" fill="white" />
	<path d="M1056.85 669.136C1056.4 669.893 1055.92 670.502 1055.41 670.962C1054.91 671.422 1054.32 671.703 1053.66 671.804C1052.98 671.899 1052.17 671.787 1051.21 671.467C1050.26 671.136 1049.1 670.566 1047.73 669.757C1046.45 668.995 1045.45 668.278 1044.73 667.604C1044 666.925 1043.51 666.262 1043.26 665.616C1043.02 664.959 1042.97 664.289 1043.13 663.607C1043.27 662.917 1043.58 662.183 1044.04 661.403C1044.25 661.048 1044.51 660.666 1044.81 660.257C1045.1 659.842 1045.41 659.442 1045.73 659.058C1046.05 658.675 1046.36 658.338 1046.66 658.049L1047.67 658.651C1047.54 658.82 1047.35 659.079 1047.09 659.425C1046.84 659.754 1046.56 660.137 1046.25 660.575C1045.95 661.002 1045.66 661.451 1045.38 661.921C1045.02 662.529 1044.79 663.095 1044.68 663.619C1044.56 664.136 1044.6 664.645 1044.82 665.145C1045.03 665.626 1045.44 666.134 1046.06 666.668C1046.66 667.195 1047.49 667.775 1048.56 668.408C1049.66 669.061 1050.59 669.534 1051.34 669.827C1052.11 670.109 1052.75 670.232 1053.26 670.198C1053.79 670.152 1054.24 669.957 1054.63 669.614C1055.03 669.26 1055.41 668.768 1055.79 668.137C1056.3 667.277 1056.69 666.558 1056.97 665.98C1057.25 665.402 1057.47 664.925 1057.61 664.546L1058.65 665.158C1058.46 665.761 1058.21 666.418 1057.89 667.131C1057.58 667.826 1057.23 668.494 1056.85 669.136ZM1062.45 659.691C1062.24 660.035 1061.98 660.443 1061.65 660.916C1061.34 661.384 1061.02 661.84 1060.7 662.283C1060.38 662.726 1060.1 663.079 1059.86 663.344L1058.81 662.721C1059.1 662.317 1059.47 661.776 1059.92 661.097C1060.36 660.399 1060.79 659.706 1061.19 659.018C1061.5 658.502 1061.72 658.007 1061.87 657.533C1062.01 657.059 1062.01 656.62 1061.88 656.216C1061.75 655.8 1061.43 655.44 1060.92 655.134L1060.06 654.623C1059.48 654.283 1058.95 654.176 1058.46 654.303C1057.97 654.417 1057.53 654.801 1057.15 655.455L1056.34 656.814C1055.72 657.858 1055 658.542 1054.19 658.866C1053.39 659.179 1052.42 659.002 1051.3 658.336L1050.58 657.907C1049.38 657.2 1048.72 656.376 1048.6 655.434C1048.48 654.493 1048.76 653.437 1049.46 652.267C1049.67 651.912 1049.93 651.518 1050.25 651.087C1050.56 650.648 1050.87 650.228 1051.18 649.826C1051.49 649.418 1051.75 649.087 1051.98 648.834L1053.01 649.447C1052.67 649.942 1052.3 650.495 1051.89 651.106C1051.48 651.716 1051.11 652.302 1050.78 652.864C1050.31 653.644 1050.09 654.343 1050.11 654.96C1050.14 655.577 1050.57 656.134 1051.4 656.63L1051.99 656.977C1052.69 657.392 1053.28 657.494 1053.76 657.284C1054.24 657.073 1054.67 656.641 1055.06 655.987L1055.93 654.525C1056.55 653.481 1057.28 652.879 1058.14 652.72C1058.98 652.553 1059.83 652.721 1060.68 653.224L1061.66 653.806C1062.51 654.309 1063.05 654.88 1063.29 655.519C1063.54 656.147 1063.57 656.815 1063.38 657.525C1063.19 658.235 1062.88 658.957 1062.45 659.691ZM1068.34 649.745C1068.14 650.089 1067.87 650.498 1067.55 650.971C1067.24 651.439 1066.92 651.894 1066.6 652.337C1066.27 652.78 1065.99 653.134 1065.76 653.398L1064.71 652.776C1065 652.372 1065.36 651.83 1065.81 651.151C1066.26 650.454 1066.68 649.761 1067.09 649.073C1067.4 648.557 1067.62 648.062 1067.76 647.587C1067.9 647.113 1067.91 646.674 1067.78 646.27C1067.65 645.855 1067.33 645.494 1066.81 645.188L1065.95 644.678C1065.38 644.338 1064.85 644.231 1064.35 644.357C1063.87 644.472 1063.43 644.856 1063.04 645.509L1062.24 646.868C1061.62 647.912 1060.9 648.596 1060.09 648.92C1059.28 649.233 1058.32 649.057 1057.2 648.39L1056.47 647.962C1055.28 647.255 1054.62 646.43 1054.5 645.489C1054.37 644.547 1054.66 643.492 1055.35 642.322C1055.56 641.966 1055.83 641.573 1056.15 641.141C1056.45 640.703 1056.76 640.283 1057.08 639.881C1057.38 639.472 1057.65 639.142 1057.88 638.889L1058.91 639.501C1058.57 639.997 1058.19 640.55 1057.79 641.16C1057.38 641.77 1057.01 642.357 1056.67 642.919C1056.21 643.698 1055.99 644.397 1056.01 645.014C1056.03 645.632 1056.46 646.188 1057.3 646.685L1057.88 647.032C1058.58 647.447 1059.17 647.549 1059.66 647.338C1060.14 647.127 1060.57 646.695 1060.96 646.042L1061.83 644.579C1062.45 643.536 1063.18 642.934 1064.04 642.774C1064.88 642.607 1065.73 642.775 1066.57 643.279L1067.55 643.86C1068.4 644.363 1068.95 644.934 1069.19 645.573C1069.44 646.201 1069.47 646.87 1069.28 647.58C1069.09 648.289 1068.78 649.011 1068.34 649.745Z" fill="white" />
</svg>
