<svg version="1.1" id="Capa_1" xmlns="http://www.w3.org/2000/svg" xmlns:xlink="http://www.w3.org/1999/xlink" x="0px" y="0px" width="377.343px" height="377.343px" viewBox="0 0 377.343 377.343" style="enable-background:new 0 0 377.343 377.343;" xml:space="preserve">
	<g>
		<path fill="white" d="M301.689,53.5H75.651c-10.876,0-19.725,8.842-19.725,19.713v230.909c0,10.868,8.843,19.711,19.725,19.711h226.039
		c10.873,0,19.722-8.843,19.722-19.711V73.218C321.406,62.348,312.562,53.5,301.689,53.5z M186.176,106.395h-60.143v34.014H177.8
		v28.279h-51.766v62.198H88.006V78.217h98.17V106.395z M338.677,0H38.662C19.094,0,3.226,15.869,3.226,35.439v306.464
		c0,19.573,15.869,35.439,35.437,35.439h300.02c19.568,0,35.436-15.866,35.436-35.439V35.434C374.117,15.869,358.25,0,338.677,0z
		 M335.381,304.122c0,18.567-15.113,33.687-33.691,33.687H75.651c-18.576,0-33.695-15.114-33.695-33.687V73.218
		c0-18.569,15.114-33.688,33.695-33.688h226.039c18.572,0,33.691,15.114,33.691,33.688V304.122z" />
	</g>

</svg>
